<svg width="83" height="35" viewBox="0 0 83 35" fill="none" xmlns="http://www.w3.org/2000/svg">
<path d="M15.1657 4.57046C14.1929 5.71889 12.6365 6.62469 11.08 6.49529C10.8855 4.94248 11.6475 3.29263 12.5392 2.2736C13.512 1.09282 15.2143 0.251712 16.5924 0.187012C16.7545 1.80452 16.1222 3.38968 15.1657 4.57046ZM16.5762 6.80262C14.3226 6.67322 12.3933 8.08045 11.3232 8.08045C10.237 8.08045 8.59948 6.86732 6.81608 6.89967C4.49765 6.93202 2.34135 8.2422 1.15781 10.3288C-1.27411 14.5019 0.525513 20.6808 2.87637 24.0776C4.02748 25.7598 5.40556 27.6038 7.2214 27.5391C8.93995 27.4744 9.62089 26.423 11.6961 26.423C13.7876 26.423 14.3875 27.5391 16.2033 27.5067C18.084 27.4744 19.2675 25.8245 20.4186 24.1423C21.7318 22.2336 22.2669 20.3735 22.2993 20.2765C22.2669 20.2441 18.6676 18.8692 18.6352 14.7284C18.6028 11.2669 21.4724 9.61708 21.6021 9.52003C19.9809 7.12612 17.4517 6.86732 16.5762 6.80262ZM29.5951 2.11185V27.3288H33.5186V18.7075H38.9498C43.911 18.7075 47.3967 15.3107 47.3967 10.3935C47.3967 5.47626 43.9758 2.11185 39.0795 2.11185H29.5951ZM33.5186 5.41156H38.0419C41.4466 5.41156 43.3921 7.22317 43.3921 10.4097C43.3921 13.5961 41.4466 15.4239 38.0257 15.4239H33.5186V5.41156ZM54.5628 27.5229C57.0271 27.5229 59.3131 26.2774 60.3507 24.304H60.4318V27.3288H64.0635V14.7769C64.0635 11.1375 61.1452 8.79215 56.6542 8.79215C52.4875 8.79215 49.4071 11.1699 49.2936 14.4372H52.828C53.1198 12.8844 54.5628 11.8654 56.5407 11.8654C58.9402 11.8654 60.2859 12.9815 60.2859 15.0357V16.4268L55.3896 16.7179C50.8338 16.9929 48.3695 18.853 48.3695 22.0881C48.3695 25.3554 50.9149 27.5229 54.5628 27.5229ZM55.6166 24.5305C53.5251 24.5305 52.1957 23.5276 52.1957 21.991C52.1957 20.4059 53.4765 19.4839 55.9246 19.3383L60.2859 19.0633V20.4867C60.2859 22.8483 58.2755 24.5305 55.6166 24.5305ZM68.9111 34.187C72.7373 34.187 74.5369 32.7313 76.1096 28.3155L83 9.03478H79.0117L74.391 23.932H74.3099L69.6893 9.03478H65.5875L72.2347 27.3935L71.878 28.5096C71.2782 30.402 70.3054 31.1299 68.5706 31.1299C68.2626 31.1299 67.6627 31.0976 67.4195 31.0652V34.09C67.6465 34.1547 68.6193 34.187 68.9111 34.187Z" fill="black"/>
</svg>
