<svg width="177" height="28" viewBox="0 0 177 28" fill="none" xmlns="http://www.w3.org/2000/svg">
<g clip-path="url(#clip0_210_3025)">
<path d="M45.1042 23.4001V17.3744H48.2763C54.1771 17.3744 57.7236 14.68 57.7236 10.653C57.7236 6.85881 54.1292 4.65674 48.9592 4.65674H41.2852V23.4001H45.1042ZM48.7885 7.44423C51.8228 7.44423 53.8806 8.58814 53.8806 11.0156C53.8806 13.247 51.5952 14.5869 48.5938 14.5869H45.1042V7.44423H48.7885ZM110.726 16.8453C110.726 12.9678 107.147 10.0382 102.405 10.0382C101.318 10.0369 100.241 10.2108 99.2366 10.5499C98.2317 10.889 97.3183 11.3866 96.5486 12.0144C95.7789 12.6422 95.1681 13.3879 94.7509 14.2088C94.3337 15.0297 94.1184 15.9098 94.1172 16.7988V16.9016C94.1172 20.8061 97.5618 23.6499 102.405 23.6499C103.483 23.6629 104.553 23.5021 105.554 23.1766C106.556 22.8512 107.469 22.3676 108.242 21.7534C109.015 21.1391 109.632 20.4064 110.058 19.597C110.485 18.7877 110.712 17.9175 110.726 17.0364C110.726 16.9702 110.726 16.9065 110.726 16.8429V16.8453ZM97.7326 16.8453C97.7326 14.6138 99.7454 12.8184 102.405 12.8845C105.344 12.9555 107.174 14.6285 107.111 16.8453C107.048 19.0621 105.065 20.8061 102.405 20.8061C99.7454 20.8061 97.7296 19.0768 97.7296 16.8453H97.7326ZM146.677 17.6365C146.761 17.1844 146.795 16.7269 146.778 16.2697C146.778 12.6151 143.37 10.048 139.038 10.048C136.876 10.0264 134.791 10.7082 133.243 11.9434C131.695 13.1786 130.81 14.8661 130.783 16.6346V16.7988C130.783 20.7865 134.024 23.6573 138.934 23.6573C142.243 23.6573 145.005 22.3738 146.164 20.5905L143.334 19.307C142.585 20.3113 140.982 21.0216 139.173 21.0216C136.648 21.0216 134.875 19.7651 134.501 17.6463L146.677 17.6365ZM134.695 15.3756C135.174 13.6463 136.744 12.5881 138.925 12.5881C141.105 12.5881 142.819 13.732 143.019 15.3756H134.695ZM90.1274 10.2881L85.6912 19.6328L81.7344 10.2881H77.6098L83.5436 23.3976L81.0874 28.0002H85.0113L94.0483 10.2881H90.1274ZM176.864 10.3444C176.353 10.2272 175.825 10.1703 175.294 10.1754C173.725 10.1754 171.951 10.9102 171.203 12.157V10.2881H167.587V23.3976H171.203V16.4117C171.203 13.9843 173.179 12.9825 175.225 12.9825C175.765 12.9737 176.303 13.0206 176.828 13.1221L176.864 10.3616V10.3444ZM164.924 17.6365C165.009 17.1844 165.043 16.7269 165.026 16.2697C165.026 12.6151 161.617 10.048 157.286 10.048C155.123 10.0264 153.039 10.7082 151.491 11.9434C149.943 13.1786 149.058 14.8661 149.031 16.6346V16.7988C149.031 20.7865 152.272 23.6573 157.181 23.6573C160.476 23.6573 163.253 22.3738 164.415 20.5905L161.581 19.307C160.833 20.3113 159.23 21.0216 157.421 21.0216C154.899 21.0216 153.123 19.7651 152.748 17.6463L164.924 17.6365ZM152.943 15.3756C153.422 13.6463 154.992 12.5881 157.172 12.5881C159.353 12.5881 161.066 13.732 161.267 15.3756H152.943ZM71.8797 16.8159C71.896 17.35 71.7834 17.8815 71.5482 18.3799C71.3131 18.8784 70.9601 19.3341 70.5094 19.7208C70.0587 20.1076 69.5191 20.4179 68.9216 20.634C68.3241 20.85 67.6804 20.9676 67.0272 20.98H66.7966C63.9989 20.98 62.1238 19.1943 62.1238 16.8159C62.1354 15.7288 62.6664 14.6886 63.6033 13.9174C64.5402 13.1461 65.8088 12.7051 67.138 12.6885C69.9686 12.6885 71.8797 14.4742 71.8797 16.8159V16.8159ZM128.327 15.9218C128.327 12.2672 126.143 10.0431 122.052 10.0431C119.901 10.0431 117.924 10.7976 116.834 12.0027V10.2881H113.183V23.3976H116.834V16.2942C116.834 14.0896 118.778 12.6959 121.096 12.6959C123.415 12.6959 124.643 13.9794 124.643 16.1545V23.4074H128.327V15.9218ZM71.8797 10.2881V12.0027C70.8223 10.8588 69.115 10.0431 66.5569 10.0431C62.1238 10.0431 58.4395 13.2519 58.4395 17.0168C58.4395 20.7816 61.6116 23.6548 65.874 23.6548C68.6387 23.6548 70.7175 22.8465 71.8647 21.5091V23.405H75.4442V10.2881H71.8797Z" fill="#252526"/>
<path fill-rule="evenodd" clip-rule="evenodd" d="M17.1568 24.2498C24.2702 24.2498 30.0368 19.5341 30.0368 13.717C30.0368 7.89997 24.2702 3.18431 17.1568 3.18431C10.0433 3.18431 4.27677 7.89997 4.27677 13.717C4.27677 19.5341 10.0433 24.2498 17.1568 24.2498ZM17.1568 27.4341C26.4208 27.4341 33.9308 21.2927 33.9308 13.717C33.9308 6.14132 26.4208 0 17.1568 0C7.89277 0 0.382812 6.14132 0.382812 13.717C0.382812 21.2927 7.89277 27.4341 17.1568 27.4341Z" fill="url(#paint0_angular_210_3025)"/>
</g>
<defs>
<radialGradient id="paint0_angular_210_3025" cx="0" cy="0" r="1" gradientUnits="userSpaceOnUse" gradientTransform="translate(17.1568 13.717) rotate(180) scale(16.774 13.717)">
<stop stop-color="#FF4700"/>
<stop offset="0.109375" stop-color="#FF4800"/>
<stop offset="0.192708" stop-color="#F66D00"/>
<stop offset="0.25" stop-color="#E9A600"/>
<stop offset="0.322917" stop-color="#E3D301"/>
<stop offset="0.416667" stop-color="#91DA30"/>
<stop offset="0.5" stop-color="#1DD58F"/>
<stop offset="0.598958" stop-color="#168BF0"/>
<stop offset="0.75" stop-color="#DD53C9"/>
<stop offset="0.890625" stop-color="#F9491D"/>
<stop offset="1" stop-color="#FF4700"/>
</radialGradient>
<clipPath id="clip0_210_3025">
<rect width="176.235" height="28" fill="white" transform="translate(0.382812)"/>
</clipPath>
</defs>
</svg>
