<svg width="17" height="18" viewBox="0 0 17 18" fill="none" xmlns="http://www.w3.org/2000/svg">
<path fill-rule="evenodd" clip-rule="evenodd" d="M2.11045 15.3896C0.716119 13.9952 0.25 11.8539 0.25 9C0.25 6.14611 0.716119 4.00478 2.11045 2.61045C3.50477 1.21612 5.6461 0.750005 8.5 0.750005C11.3539 0.750005 13.4952 1.21612 14.8895 2.61045C16.2839 4.00478 16.75 6.14611 16.75 9C16.75 11.8539 16.2839 13.9952 14.8895 15.3896C13.4952 16.7839 11.3539 17.25 8.5 17.25C5.6461 17.25 3.50477 16.7839 2.11045 15.3896ZM3.17111 14.3289C4.12063 15.2784 5.7293 15.75 8.5 15.75C11.2707 15.75 12.8794 15.2784 13.8289 14.3289C14.7784 13.3794 15.25 11.7707 15.25 9C15.25 6.22931 14.7784 4.62064 13.8289 3.67111C12.8794 2.72159 11.2707 2.25 8.5 2.25C5.7293 2.25 4.12063 2.72159 3.17111 3.67111C2.22158 4.62064 1.75 6.22931 1.75 9C1.75 11.7707 2.22158 13.3794 3.17111 14.3289Z" fill="#E4DBF1"/>
<path fill-rule="evenodd" clip-rule="evenodd" d="M13.088 6.1518C13.3809 6.44469 13.3809 6.91957 13.088 7.21246L8.08802 12.2125C7.79517 12.5053 7.32039 12.5054 7.02747 12.2126L4.52642 9.71257C4.23347 9.41974 4.23337 8.94486 4.5262 8.65191C4.81903 8.35895 5.2939 8.35885 5.58686 8.65169L7.55758 10.6216L12.0274 6.1518C12.3203 5.85891 12.7951 5.85891 13.088 6.1518Z" fill="#E4DBF1"/>
</svg>
