<svg width="140" height="31" viewBox="0 0 140 31" fill="none" xmlns="http://www.w3.org/2000/svg">
<path d="M107.022 6.75098H99.316C98.7898 6.75098 98.3414 7.09108 98.2592 7.55322L95.1429 25.0955C95.0809 25.4416 95.3828 25.7537 95.776 25.7537H99.7306C100.098 25.7537 100.412 25.5156 100.47 25.1915L101.354 20.219C101.435 19.7559 101.885 19.4158 102.411 19.4158H104.849C109.926 19.4158 112.854 17.2351 113.62 12.9138C113.966 11.0233 113.634 9.53781 112.636 8.4975C111.542 7.35516 109.601 6.75098 107.022 6.75098ZM107.911 13.1579C107.491 15.6126 105.379 15.6126 103.335 15.6126H102.173L102.99 11.0283C103.038 10.7512 103.307 10.5471 103.623 10.5471H104.156C105.546 10.5471 106.86 10.5471 107.538 11.2513C107.943 11.6715 108.066 12.2956 107.911 13.1579Z" fill="#179BD7"/>
<path d="M130.052 13.0791H126.365C126.048 13.0791 125.779 13.2831 125.732 13.5602L125.568 14.4765L125.309 14.1444C124.51 13.1151 122.73 12.771 120.953 12.771C116.875 12.771 113.394 15.5128 112.716 19.359C112.364 21.2775 112.863 23.1121 114.089 24.3915C115.216 25.5678 116.822 26.058 118.736 26.058C122.022 26.058 123.843 24.1824 123.843 24.1824L123.679 25.0927C123.617 25.4408 123.919 25.7529 124.314 25.7529H127.637C128.163 25.7529 128.611 25.4128 128.694 24.9496L130.689 13.7373C130.75 13.3922 130.448 13.0791 130.052 13.0791ZM124.909 19.455C124.556 21.3266 122.88 22.5829 120.746 22.5829C119.677 22.5829 118.819 22.2778 118.269 21.6997C117.724 21.1255 117.518 20.3083 117.69 19.398C118.024 17.5424 119.723 16.245 121.825 16.245C122.872 16.245 123.724 16.5541 124.285 17.1373C124.85 17.7265 125.073 18.5487 124.909 19.455Z" fill="#179BD7"/>
<path d="M134.403 7.23214L131.241 25.0955C131.179 25.4416 131.48 25.7537 131.874 25.7537H135.053C135.582 25.7537 136.03 25.4136 136.111 24.9505L139.23 7.4092C139.292 7.06309 138.99 6.75 138.596 6.75H135.036C134.722 6.751 134.451 6.95506 134.403 7.23214Z" fill="#179BD7"/>
<path d="M52.0633 6.75098H44.3581C43.8309 6.75098 43.3824 7.09108 43.3002 7.55322L40.1839 25.0955C40.1219 25.4416 40.4238 25.7537 40.8193 25.7537H44.4978C45.0251 25.7537 45.4735 25.4136 45.5558 24.9504L46.3962 20.219C46.4774 19.7559 46.9269 19.4158 47.453 19.4158H49.8922C54.9678 19.4158 57.8971 17.2351 58.6621 12.9138C59.0069 11.0233 58.6768 9.53781 57.6797 8.4975C56.5846 7.35516 54.6422 6.75098 52.0633 6.75098ZM52.9522 13.1579C52.5309 15.6126 50.4184 15.6126 48.3758 15.6126H47.2131L48.0288 11.0283C48.0772 10.7512 48.3476 10.5471 48.6631 10.5471H49.196C50.5874 10.5471 51.8999 10.5471 52.5782 11.2513C52.9827 11.6715 53.1066 12.2956 52.9522 13.1579Z" fill="#253B80"/>
<path d="M75.0983 13.0791H71.4085C71.0942 13.0791 70.8227 13.2831 70.7742 13.5602L70.6109 14.4765L70.3529 14.1444C69.5541 13.1151 67.7728 12.771 65.995 12.771C61.9176 12.771 58.4351 15.5128 57.7569 19.359C57.4042 21.2775 57.9056 23.1121 59.1314 24.3915C60.2558 25.5678 61.8646 26.058 63.7788 26.058C67.0642 26.058 68.886 24.1824 68.886 24.1824L68.7215 25.0927C68.6595 25.4408 68.9614 25.7529 69.3546 25.7529H72.6783C73.2067 25.7529 73.6528 25.4128 73.7362 24.9496L75.7304 13.7373C75.7935 13.3922 75.4927 13.0791 75.0983 13.0791ZM69.9551 19.455C69.5991 21.3266 67.926 22.5829 65.7922 22.5829C64.7207 22.5829 63.8645 22.2778 63.3146 21.6997C62.7693 21.1255 62.562 20.3083 62.7355 19.398C63.0679 17.5424 64.7692 16.245 66.8704 16.245C67.9182 16.245 68.7699 16.5541 69.331 17.1373C69.8932 17.7265 70.1163 18.5487 69.9551 19.455Z" fill="#253B80"/>
<path d="M94.7498 13.0789H91.042C90.6882 13.0789 90.3558 13.2349 90.1553 13.496L85.0414 20.184L82.8737 13.7571C82.7374 13.3549 82.3194 13.0789 81.8462 13.0789H78.2026C77.7598 13.0789 77.4523 13.463 77.5931 13.8331L81.6772 24.4743L77.8376 29.2867C77.5356 29.6658 77.8398 30.187 78.3615 30.187H82.0648C82.4163 30.187 82.7453 30.0349 82.9447 29.7789L95.2771 13.9741C95.5722 13.596 95.2692 13.0789 94.7498 13.0789Z" fill="#253B80"/>
<path d="M8.18815 29.1629L8.77739 25.8399L7.46484 25.8128H1.19727L5.55291 1.29249C5.56643 1.21847 5.61037 1.14945 5.67459 1.10044C5.73881 1.05142 5.82105 1.02441 5.90668 1.02441H16.4747C19.9831 1.02441 22.4043 1.67261 23.6684 2.95199C24.261 3.55217 24.6384 4.17936 24.8209 4.86957C25.0125 5.59378 25.0158 6.45904 24.8288 7.51436L24.8153 7.59138V8.26759L25.4079 8.56568C25.907 8.80075 26.3036 9.06983 26.6078 9.37792C27.1148 9.89107 27.4427 10.5433 27.5812 11.3165C27.7243 12.1117 27.677 13.058 27.4427 14.1293C27.1723 15.3617 26.7351 16.435 26.1448 17.3133C25.6017 18.1225 24.9099 18.7937 24.0886 19.3139C23.3045 19.808 22.3727 20.1832 21.3193 20.4232C20.2985 20.6593 19.1347 20.7783 17.8582 20.7783H17.0358C16.4476 20.7783 15.8764 20.9664 15.428 21.3035C14.9785 21.6476 14.6811 22.1177 14.5898 22.6319L14.5278 22.931L13.4868 28.7877L13.4395 29.0028C13.4271 29.0708 13.4057 29.1048 13.3741 29.1278C13.346 29.1488 13.3054 29.1629 13.266 29.1629H8.18815Z" fill="#253B80"/>
<path d="M25.9677 7.66943C25.9361 7.84849 25.9001 8.03154 25.8595 8.2196C24.4658 14.5725 19.6978 16.7672 13.6083 16.7672H10.5077C9.763 16.7672 9.13546 17.2473 9.01941 17.8995L7.43196 26.8382L6.98242 29.3719C6.90693 29.8001 7.27873 30.1862 7.76544 30.1862H13.2646C13.9158 30.1862 14.469 29.7661 14.5716 29.1959L14.6256 28.9478L15.661 23.1141L15.7275 22.794C15.8289 22.2218 16.3832 21.8017 17.0344 21.8017H17.8569C23.1848 21.8017 27.3557 19.8811 28.5747 14.3234C29.084 12.0017 28.8203 10.0632 27.4729 8.69974C27.065 8.28862 26.5592 7.94752 25.9677 7.66943Z" fill="#179BD7"/>
<path d="M24.5079 7.15312C24.295 7.0981 24.0753 7.04809 23.85 7.00307C23.6235 6.95906 23.3914 6.92005 23.1526 6.88604C22.3166 6.766 21.4006 6.70898 20.4193 6.70898H12.1362C11.9322 6.70898 11.7384 6.75 11.5649 6.82402C11.183 6.98707 10.8991 7.30816 10.8304 7.70128L9.06828 17.6103L9.01758 17.8993C9.13362 17.2471 9.76117 16.767 10.5059 16.767H13.6064C19.696 16.767 24.464 14.5713 25.8577 8.21944C25.8994 8.03138 25.9343 7.84833 25.9658 7.66927C25.6132 7.50322 25.2312 7.36118 24.82 7.24014C24.7186 7.21013 24.6138 7.18113 24.5079 7.15312Z" fill="#222D65"/>
<path d="M10.8316 7.70131C10.9004 7.30819 11.1843 6.9871 11.5662 6.82505C11.7408 6.75102 11.9335 6.71001 12.1374 6.71001H20.4206C21.4019 6.71001 22.3179 6.76703 23.1538 6.88707C23.3927 6.92108 23.6248 6.96009 23.8512 7.0041C24.0766 7.04911 24.2963 7.09913 24.5092 7.15415C24.6151 7.18215 24.7199 7.21116 24.8224 7.24017C25.2336 7.36121 25.6156 7.50425 25.9682 7.6693C26.3828 5.3216 25.9648 3.72312 24.5351 2.27568C22.9589 0.682205 20.1141 0 16.4739 0H5.90591C5.16231 0 4.52801 0.480144 4.41309 1.13334L0.0112539 25.9058C-0.0754984 26.3959 0.350377 26.8381 0.906944 26.8381H7.4314L9.06955 17.6103L10.8316 7.70131Z" fill="#253B80"/>
</svg>
