<svg width="177" height="28" viewBox="0 0 177 28" fill="none" xmlns="http://www.w3.org/2000/svg">
<g clip-path="url(#clip0_210_2231)">
<path d="M164.546 11.2045L168.269 19.1868H168.313L171.947 11.2045H174.516L166.68 27.227H164.242L167.159 21.6221L161.999 11.2045H164.546ZM156.1 10.8373C157.841 10.8373 159.212 11.2432 160.214 12.0743C161.216 12.9054 161.716 14.0264 161.716 15.4759V22.3372H159.474V20.7909H159.365C158.386 22.0666 157.101 22.7044 155.49 22.7044C154.119 22.7044 152.965 22.3372 152.029 21.622C151.093 20.8876 150.635 19.9792 150.635 18.8969C150.635 17.7566 151.115 16.8288 152.116 16.1523C153.096 15.4759 154.402 15.128 156.034 15.128C157.427 15.128 158.581 15.36 159.496 15.8045V15.3213C159.496 14.5868 159.169 13.9877 158.516 13.4658C157.863 12.9633 157.101 12.712 156.23 12.712C154.924 12.712 153.879 13.1953 153.117 14.181L151.049 13.0213C152.181 11.5718 153.879 10.8373 156.1 10.8373ZM144.214 6.06348C145.803 6.06348 147.153 6.52734 148.263 7.4744C149.394 8.42143 149.939 9.56172 149.939 10.8953C149.939 12.2676 149.372 13.4272 148.263 14.3356C147.174 15.2634 145.825 15.7273 144.214 15.7273H140.339V22.3179H137.987V6.06348H144.214ZM156.404 16.7708C155.447 16.7708 154.663 16.9834 154.01 17.3893C153.378 17.8145 153.052 18.317 153.052 18.9162C153.052 19.4574 153.313 19.9212 153.835 20.2691C154.358 20.6363 154.967 20.8103 155.664 20.8103C156.644 20.8103 157.536 20.4817 158.32 19.8439C159.103 19.1868 159.474 18.433 159.474 17.544C158.734 17.0221 157.71 16.7708 156.404 16.7708ZM144.279 8.09287H140.339V13.7558H144.279C145.215 13.7558 145.999 13.4853 146.608 12.9247C147.24 12.3643 147.544 11.7071 147.544 10.934C147.544 10.1803 147.24 9.52307 146.608 8.96261C145.999 8.38278 145.215 8.09287 144.279 8.09287Z" fill="#5F6368"/>
<path d="M104.765 10.8567C106.354 10.8567 107.617 11.4752 108.271 12.171H108.379V11.2047H111.166V21.8348C111.166 26.2027 108.271 28.0002 104.831 28.0002C101.609 28.0002 99.6715 26.0675 98.931 24.502L101.479 23.5549C101.935 24.5213 103.046 25.6616 104.831 25.6616C107.03 25.6616 108.379 24.444 108.379 22.1827V21.3322H108.271C107.617 22.0474 106.354 22.6851 104.765 22.6851C101.435 22.6851 98.3875 20.1146 98.3875 16.7903C98.3875 13.4467 101.435 10.8567 104.765 10.8567ZM123.923 10.8761C127.384 10.8761 129.06 13.3114 129.626 14.645L129.931 15.3214L121.028 18.5878C121.702 19.7668 122.769 20.3853 124.249 20.3853C125.73 20.3466 126.775 19.7088 127.536 18.7231L129.8 20.076C129.06 21.0424 127.297 22.7046 124.249 22.7046C120.461 22.7046 117.653 20.1146 117.653 16.7904C117.653 13.2727 120.505 10.8761 123.923 10.8761ZM58.7475 4.32422C61.9039 4.32422 64.1461 5.42589 65.8223 6.85611L63.8196 8.63424C62.6005 7.62926 60.9679 6.83682 58.7257 6.83682C54.5678 6.83682 51.3025 9.81325 51.3025 13.5048C51.3025 17.1963 54.5461 20.1728 58.7257 20.1728C61.425 20.1728 62.9706 19.2064 63.9502 18.3367C64.7557 17.6215 65.2781 16.5972 65.4958 15.1863H58.6604V12.6737H68.2387C68.3475 13.1182 68.3911 13.6594 68.3911 14.2392C68.3911 16.114 67.8032 18.4526 65.9529 20.1148C64.1243 21.7962 61.8169 22.6853 58.7475 22.6853C53.044 22.6853 48.2549 18.5686 48.2549 13.5048C48.2549 8.44098 53.044 4.32422 58.7475 4.32422ZM76.0546 10.8567C79.7336 10.8567 82.7377 13.35 82.7377 16.7709C82.7377 20.1726 79.7336 22.6851 76.0546 22.6851C72.3757 22.6851 69.3715 20.1726 69.3715 16.7709C69.3715 13.35 72.3757 10.8567 76.0546 10.8567ZM90.5955 10.8567C94.2742 10.8567 97.2784 13.35 97.2784 16.7709C97.2784 20.1726 94.2742 22.6851 90.5955 22.6851C86.9161 22.6851 83.9119 20.1726 83.9119 16.7709C83.9119 13.35 86.9161 10.8567 90.5955 10.8567ZM116.195 4.94276V22.3182H113.278V4.94276H116.195ZM76.0764 13.1954C74.0737 13.1954 72.3321 14.645 72.3321 16.7709C72.3321 18.8776 74.0737 20.3465 76.0764 20.3465C78.0791 20.3465 79.8207 18.8776 79.8207 16.7709C79.8207 14.645 78.0791 13.1954 76.0764 13.1954ZM90.5955 13.1954C88.5923 13.1954 86.851 14.645 86.851 16.7709C86.851 18.8776 88.5923 20.3465 90.5955 20.3465C92.598 20.3465 94.3393 18.8776 94.3393 16.7709C94.3393 14.645 92.598 13.1954 90.5955 13.1954ZM105.048 13.176C103.024 13.176 101.348 14.7029 101.348 16.7903C101.348 18.8583 103.046 20.3465 105.048 20.3465C107.03 20.3465 108.597 18.8583 108.597 16.7903C108.597 14.7029 107.03 13.176 105.048 13.176ZM124.01 13.1375C122.53 13.1375 120.461 14.3164 120.548 16.597L126.491 14.3937C126.165 13.6593 125.185 13.1375 124.01 13.1375Z" fill="#5F6368"/>
<path d="M32.8136 5.22223C29.2914 3.41705 24.7875 4.48972 22.752 7.61693L17.6212 15.5083C16.1365 17.7871 18.0478 18.5833 20.179 19.7178L25.1161 22.2478C26.788 23.104 28.9235 22.5957 29.8879 21.1133L35.1625 13.0035C36.9345 10.2783 35.883 6.79553 32.8136 5.22223Z" fill="#EA4335"/>
<path d="M27.0094 8.48851L22.0723 5.95857C19.3468 4.61531 17.8034 4.5264 16.6844 6.10546L9.40281 17.3019C7.36957 20.4271 8.57993 24.4241 12.0999 26.2254C15.1693 27.7986 19.0921 26.8651 20.8641 24.1399L28.2851 12.727C29.2538 11.2427 28.6813 9.34473 27.0094 8.48851Z" fill="#FBBC04"/>
<path d="M27.961 2.73319L24.4932 0.95506C20.6575 -1.01055 15.753 0.154899 13.5391 3.5604L6.93663 13.7131C5.96139 15.211 6.54044 17.1283 8.22756 17.9922L12.1111 19.983C14.0289 20.9668 16.4801 20.383 17.5881 18.6803L25.131 7.08189C26.694 4.67946 30.1531 3.85611 32.859 5.24383L27.961 2.73319Z" fill="#34A853"/>
<path d="M14.4763 6.4652L10.7277 4.54791C9.05581 3.69364 6.92031 4.20001 5.95595 5.6805L1.45851 12.5804C-0.755385 15.9762 0.557278 20.3211 4.39295 22.2809L7.24685 23.7401L10.7081 25.5105L12.2101 26.2778C9.54345 24.693 8.69664 21.5174 10.3271 19.0165L11.4917 17.2306L15.7563 10.6882C16.7185 9.21166 16.146 7.31947 14.4763 6.4652Z" fill="#4285F4"/>
</g>
<defs>
<clipPath id="clip0_210_2231">
<rect width="176.235" height="28" fill="white" transform="translate(0.382812)"/>
</clipPath>
</defs>
</svg>
