<svg width="35" height="34" viewBox="0 0 35 34" fill="none" xmlns="http://www.w3.org/2000/svg">
<g clip-path="url(#clip0_676_11166)">
<path d="M8.53597 6.44762H29.9509C30.3157 6.44762 30.659 6.48592 31.0024 6.57529V5.41344C31.0024 2.42584 28.9639 0 26.4533 0H5.04907C2.5385 0 0.5 2.42584 0.5 5.41344V20.8367C0.5 22.8922 1.4656 24.6797 2.88182 25.5989V13.1761C2.88182 9.47353 5.41385 6.44762 8.53597 6.44762Z" fill="black"/>
<path d="M29.9504 7.7627H8.5354C6.02483 7.7627 3.98633 10.1885 3.98633 13.1761V28.5993C3.98633 31.587 6.02483 34.0128 8.5354 34.0128H29.9504C32.4609 34.0128 34.4994 31.587 34.4994 28.5993V13.1761C34.4994 10.1885 32.4609 7.7627 29.9504 7.7627ZM8.5354 10.6737H29.9504C31.1091 10.6737 32.0532 11.7972 32.0532 13.1761V21.5644H6.43253V13.1761C6.43253 11.7972 7.37667 10.6737 8.5354 10.6737ZM29.9504 31.089H8.5354C7.37667 31.089 6.43253 29.9655 6.43253 28.5866V27.2715H32.0532V28.5866C32.0532 29.9655 31.1091 31.089 29.9504 31.089Z" fill="black"/>
</g>
<defs>
<clipPath id="clip0_676_11166">
<rect width="34" height="34" fill="white" transform="translate(0.5)"/>
</clipPath>
</defs>
</svg>
