<svg width="27" height="23" viewBox="0 0 27 23" fill="none" xmlns="http://www.w3.org/2000/svg">
<path fill-rule="evenodd" clip-rule="evenodd" d="M13.5562 21.4297C9.65816 21.4297 6.32812 20.84 6.32812 18.4788C6.32812 16.1176 9.6365 14.062 13.5562 14.062C17.4543 14.062 20.7843 16.0983 20.7843 18.4583C20.7843 20.8184 17.476 21.4297 13.5562 21.4297Z" stroke="url(#paint0_linear_251_468)" stroke-width="1.5" stroke-linecap="round" stroke-linejoin="round"/>
<path fill-rule="evenodd" clip-rule="evenodd" d="M13.5553 10.6953C16.1139 10.6953 18.1887 8.62169 18.1887 6.06309C18.1887 3.50449 16.1139 1.42969 13.5553 1.42969C10.9967 1.42969 8.92189 3.50449 8.92189 6.06309C8.91469 8.61207 10.9726 10.6869 13.5228 10.6953H13.5553Z" stroke="url(#paint1_linear_251_468)" stroke-width="1.5" stroke-linecap="round" stroke-linejoin="round"/>
<path d="M21.2486 9.42333C22.7373 9.02497 23.8349 7.66745 23.8349 6.05117C23.8349 4.36509 22.6398 2.95702 21.0488 2.63208" stroke="url(#paint2_linear_251_468)" stroke-width="1.5" stroke-linecap="round" stroke-linejoin="round"/>
<path d="M21.9473 13.2178C24.0582 13.2178 25.861 14.6487 25.861 15.9268C25.861 16.679 25.2388 17.4986 24.2953 17.72" stroke="url(#paint3_linear_251_468)" stroke-width="1.5" stroke-linecap="round" stroke-linejoin="round"/>
<path d="M5.86678 9.42333C4.37687 9.02497 3.2793 7.66745 3.2793 6.05117C3.2793 4.36509 4.47556 2.95702 6.06536 2.63208" stroke="url(#paint4_linear_251_468)" stroke-width="1.5" stroke-linecap="round" stroke-linejoin="round"/>
<path d="M5.16763 13.2178C3.05672 13.2178 1.25391 14.6487 1.25391 15.9268C1.25391 16.679 1.87611 17.4986 2.82084 17.72" stroke="url(#paint5_linear_251_468)" stroke-width="1.5" stroke-linecap="round" stroke-linejoin="round"/>
<defs>
<linearGradient id="paint0_linear_251_468" x1="7.1738" y1="17.7459" x2="15.0961" y2="24.4588" gradientUnits="userSpaceOnUse">
<stop stop-color="#FF41B3"/>
<stop offset="1" stop-color="#7E00E0"/>
</linearGradient>
<linearGradient id="paint1_linear_251_468" x1="9.46398" y1="6.06249" x2="16.817" y2="9.23837" gradientUnits="userSpaceOnUse">
<stop stop-color="#FF41B3"/>
<stop offset="1" stop-color="#7E00E0"/>
</linearGradient>
<linearGradient id="paint2_linear_251_468" x1="21.2118" y1="6.0277" x2="23.7551" y2="6.47828" gradientUnits="userSpaceOnUse">
<stop stop-color="#FF41B3"/>
<stop offset="1" stop-color="#7E00E0"/>
</linearGradient>
<linearGradient id="paint3_linear_251_468" x1="22.1762" y1="15.4689" x2="25.4058" y2="16.6813" gradientUnits="userSpaceOnUse">
<stop stop-color="#FF41B3"/>
<stop offset="1" stop-color="#7E00E0"/>
</linearGradient>
<linearGradient id="paint4_linear_251_468" x1="3.44228" y1="6.0277" x2="5.98553" y2="6.47828" gradientUnits="userSpaceOnUse">
<stop stop-color="#FF41B3"/>
<stop offset="1" stop-color="#7E00E0"/>
</linearGradient>
<linearGradient id="paint5_linear_251_468" x1="1.48285" y1="15.4689" x2="4.71248" y2="16.6813" gradientUnits="userSpaceOnUse">
<stop stop-color="#FF41B3"/>
<stop offset="1" stop-color="#7E00E0"/>
</linearGradient>
</defs>
</svg>
